<?xml version="1.0" ?><!DOCTYPE svg  PUBLIC '-//W3C//DTD SVG 1.1//EN'  'http://www.w3.org/Graphics/SVG/1.1/DTD/svg11.dtd'><svg enable-background="new 0 0 512 512" height="512px" id="Layer_1" version="1.1" viewBox="0 0 512 512" width="512px" xml:space="preserve" xmlns="http://www.w3.org/2000/svg" xmlns:xlink="http://www.w3.org/1999/xlink"><g><path d="M448,64h-16v33.594c0,17.656-14.344,32-32,32s-32-14.344-32-32V64h-80v33.594c0,17.656-14.344,32-32,32   s-32-14.344-32-32V64h-80v33.594c0,17.656-14.344,32-32,32s-32-14.344-32-32V64H64c-26.5,0-48,21.492-48,48v320   c0,26.516,21.5,48,48,48h384c26.5,0,48-21.484,48-48V112C496,85.492,474.5,64,448,64z M464,416c0,8.828-7.188,16-16,16H64   c-8.813,0-16-7.172-16-16V192h416V416z M240,96V48c0-8.836,7.156-16,16-16s16,7.164,16,16v48c0,8.844-7.156,16-16,16   S240,104.844,240,96z M384,96V48c0-8.836,7.156-16,16-16s16,7.164,16,16v48c0,8.844-7.156,16-16,16S384,104.844,384,96z M96,96V48   c0-8.836,7.156-16,16-16s16,7.164,16,16v48c0,8.844-7.156,16-16,16S96,104.844,96,96z M176,264v-32c0-4.422,3.578-8,8-8h48   c4.422,0,8,3.578,8,8v32c0,4.422-3.578,8-8,8h-48C179.578,272,176,268.422,176,264z M272,264v-32c0-4.422,3.578-8,8-8h48   c4.422,0,8,3.578,8,8v32c0,4.422-3.578,8-8,8h-48C275.578,272,272,268.422,272,264z M368,264v-32c0-4.422,3.578-8,8-8h48   c4.422,0,8,3.578,8,8v32c0,4.422-3.578,8-8,8h-48C371.578,272,368,268.422,368,264z M80,328v-32c0-4.422,3.578-8,8-8h48   c4.422,0,8,3.578,8,8v32c0,4.422-3.578,8-8,8H88C83.578,336,80,332.422,80,328z M176,328v-32c0-4.422,3.578-8,8-8h48   c4.422,0,8,3.578,8,8v32c0,4.422-3.578,8-8,8h-48C179.578,336,176,332.422,176,328z M272,328v-32c0-4.422,3.578-8,8-8h48   c4.422,0,8,3.578,8,8v32c0,4.422-3.578,8-8,8h-48C275.578,336,272,332.422,272,328z M368,328v-32c0-4.422,3.578-8,8-8h48   c4.422,0,8,3.578,8,8v32c0,4.422-3.578,8-8,8h-48C371.578,336,368,332.422,368,328z M80,392v-32c0-4.422,3.578-8,8-8h48   c4.422,0,8,3.578,8,8v32c0,4.422-3.578,8-8,8H88C83.578,400,80,396.422,80,392z M176,392v-32c0-4.422,3.578-8,8-8h48   c4.422,0,8,3.578,8,8v32c0,4.422-3.578,8-8,8h-48C179.578,400,176,396.422,176,392z M272,392v-32c0-4.422,3.578-8,8-8h48   c4.422,0,8,3.578,8,8v32c0,4.422-3.578,8-8,8h-48C275.578,400,272,396.422,272,392z" fill="#fff"/></g></svg>