<svg height='100px' width='100px'  fill="#FFFFFF" xmlns="http://www.w3.org/2000/svg" viewBox="0 0 32 32" x="0px" y="0px"><g data-name="27-Email"><path d="M16,18a1,1,0,0,0,0-2,6,6,0,1,1,6-6v2a1,1,0,0,1-2,0V10a4,4,0,1,0-4,4,4,4,0,0,0,2.29-.73A3,3,0,0,0,24,12V10a8,8,0,1,0-8,8Zm0-6a2,2,0,1,1,2-2A2,2,0,0,1,16,12Zm13.61,1.21-3-2.31a1,1,0,0,0-1.22,1.58l2,1.52L16,22.74,4.64,14l2-1.52A1,1,0,0,0,5.39,10.9l-3,2.31A1,1,0,0,0,2,14V27a3,3,0,0,0,3,3H27a3,3,0,0,0,3-3V14A1,1,0,0,0,29.61,13.21ZM27,28H5a1,1,0,0,1-1-1V16l11.39,8.76a1,1,0,0,0,1.22,0L28,16V27A1,1,0,0,1,27,28Z"></path></g></svg>