<svg height='100px' width='100px'  fill="#FFFFFF" xmlns="http://www.w3.org/2000/svg" data-name="Layer 1" viewBox="0 0 100 100" x="0px" y="0px"><title>Map Pin</title><circle cx="50" cy="31.60913" r="7.96875"></circle><path d="M50,76.97809a.363.363,0,0,0,.32941-.22437C57.17188,61.0481,75.5,45.19012,75.5,31.6095,75.5,17.06085,65.40356,5.26685,50,5.26685S24.5,17.06085,24.5,31.6095c0,13.58062,18.32813,29.4386,25.17065,45.14422A.36289.36289,0,0,0,50,76.97809Zm-12.75-45.369A12.75,12.75,0,1,1,50,44.35913,12.76465,12.76465,0,0,1,37.25,31.60913Z"></path><path d="M43.97705,75.18884l-2.19629-4.78332C33.95508,71.46429,27.667,74.145,27.667,78.71655c0,6.106,11.2168,8.83936,22.333,8.83936s22.333-2.7334,22.333-8.83936c0-4.57159-6.28809-7.25226-14.11377-8.311L56.023,75.18884c6.847.73188,10.637,2.58319,11.26416,3.52771-.792,1.19287-6.6084,3.83936-17.28711,3.83936s-16.49512-2.64649-17.28711-3.83936C33.34009,77.772,37.13013,75.92072,43.97705,75.18884Z"></path><path d="M63.26343,63.22821c-1.13172,1.57007-2.2428,3.14679-3.30982,4.72443C78.5658,69.41644,90,74.77942,90,78.64917c0,4.51953-15.582,11.084-40,11.084s-40-6.56445-40-11.084c0-3.86975,11.43433-9.23285,30.04675-10.69659-1.06677-1.57721-2.1781-3.15387-3.31018-4.72437C19.49121,64.98016,5,70.20172,5,78.64917c0,10.55908,22.6377,16.084,45,16.084s45-5.5249,45-16.084C95,70.20172,80.50879,64.98022,63.26343,63.22821Z"></path></svg>