<svg height='100px' width='100px'  fill="#FFFFFF" xmlns="http://www.w3.org/2000/svg" data-name="Layer 1" viewBox="0 0 100 100" x="0px" y="0px"><title>Email</title><path d="M84,16.17H16a16,16,0,0,0-16,16V67.86a16,16,0,0,0,16,16H84a16,16,0,0,0,16-16V32.14A16,16,0,0,0,84,16.17Zm8.43,51.69A8.44,8.44,0,0,1,84,76.29H16a8.44,8.44,0,0,1-8.43-8.43V32.14A8.44,8.44,0,0,1,16,23.71H84a8.44,8.44,0,0,1,8.43,8.43Z"></path><path d="M73.42,33.74,49.93,50l-25.5-16.5a3.77,3.77,0,1,0-4.09,6.33L47.88,57.61h0l.06,0,.08,0,.35.2.16.07.3.11.19.06.3.06a1.08,1.08,0,0,0,.19,0l.44,0h0l.43,0h0l.42-.08h0l.42-.13h0l.38-.17.09-.05.32-.2h0l0,0L77.7,40a3.77,3.77,0,0,0-4.28-6.21Z"></path></svg>