<svg height='100px' width='100px'  fill="#FFFFFF" xmlns:dc="http://purl.org/dc/elements/1.1/" xmlns:cc="http://creativecommons.org/ns#" xmlns:rdf="http://www.w3.org/1999/02/22-rdf-syntax-ns#" xmlns:svg="http://www.w3.org/2000/svg" xmlns="http://www.w3.org/2000/svg" xmlns:sodipodi="http://sodipodi.sourceforge.net/DTD/sodipodi-0.dtd" xmlns:inkscape="http://www.inkscape.org/namespaces/inkscape" version="1.1" x="0px" y="0px" viewBox="0 0 100 100"><title>trash</title><g transform="translate(0,52)"><path style="" d="m 37.383379,-47 -3.542274,4.023324 -18.039358,0 c -0.436741,0 -0.787172,0.35043 -0.787172,0.787171 l 0,9.314869 c 0,0.436741 0.350431,0.787172 0.787172,0.787172 l 68.396505,0 c 0.436737,0 0.787172,-0.350431 0.787172,-0.787172 l 0,-9.314869 c 0,-0.436741 -0.350435,-0.787171 -0.787172,-0.787171 l -17.667641,0 L 63.18513,-47 37.383379,-47 z m -16.639941,19.504373 0,6.997085 0,55.976676 0,0.524782 C 20.743438,39.8793 23.864137,43 27.740523,43 l 45.087464,0 c 3.876385,0 6.997085,-3.1207 6.997085,-6.997084 l 0,-0.524782 0,-55.976676 0,-6.997085 -6.997085,0 -45.087463,0 -6.997085,0 z" fill="#FFFFFF" fill-opacity="1" fill-rule="nonzero" stroke="none"></path></g></svg>